<svg width="199" height="40" viewBox="0 0 199 40" fill="none" xmlns="http://www.w3.org/2000/svg">
<g clip-path="url(#clip0_2197_22)">
<path d="M8.88319 21.9146C8.88319 23.053 8.90683 24.0171 8.867 24.9778C8.85663 25.2264 8.68206 25.4979 8.52141 25.7038C7.50118 27.0101 3.8575 31.5447 3.48115 33.2534C3.13266 34.8358 3.68714 35.9822 5.11773 36.5284C6.3161 36.9875 7.55106 36.9163 8.7776 36.7422C11.4911 36.3579 14.0543 35.386 16.545 34.2374C18.5323 33.3193 20.5109 32.327 22.3567 31.1269C24.8532 29.5042 27.1719 27.5856 28.9474 25.045C29.4167 24.3728 29.787 23.6351 30.0466 22.855C30.446 21.6417 30.1114 20.9492 29.0102 20.4285C28.6008 20.236 28.1545 20.1127 27.7147 20.0232C27.2749 19.9337 26.8172 19.9265 26.3278 19.8793V18.5805C28.0201 18.3634 29.6823 18.289 31.087 19.4022C32.2973 20.3613 32.7624 21.7565 32.4395 23.3836C32.1451 24.8673 31.4183 26.1094 30.524 27.2528C28.8722 29.3632 26.9004 31.082 24.7418 32.553C19.6983 35.9894 14.2677 38.4204 8.38182 39.6212C6.69763 39.9645 5.0047 40.0511 3.29168 39.7353C0.546455 39.2297 -0.477014 36.4494 0.182411 34.1282C1.00442 31.2499 2.721 29.0402 4.53669 26.8783C5.01506 26.3091 8.23542 22.5976 8.88319 21.9146Z" fill="url(#paint0_linear_2197_22)"/>
<path d="M17.7436 33.2644V-0.0689249C19.8495 -0.0689249 21.8496 -0.0689249 23.8509 -0.0689249C24.3954 -0.0689249 24.3091 0.367527 24.3141 0.706773C24.3392 2.43249 24.3601 4.15821 24.3632 5.88425C24.3754 13.1779 24.3745 20.4715 24.4015 27.7652C24.4037 28.3536 24.2616 28.7667 23.7997 29.0966C22.1056 30.3061 20.4259 31.539 18.7312 32.7482C18.4553 32.9439 18.1318 33.0642 17.7436 33.2644Z" fill="url(#paint1_linear_2197_22)"/>
<path d="M16.2426 4.37581C16.2426 4.76422 16.2426 5.03837 16.2426 5.31155C16.2544 14.379 16.2616 23.4464 16.264 32.5138C16.264 32.7877 16.1114 33.2182 15.9169 33.3114C13.8995 34.2824 11.8589 35.1968 9.6071 36.2274C9.6071 34.9003 9.60465 33.8367 9.6071 32.7728C9.63314 23.7377 9.66102 14.7029 9.69073 5.66824C9.69531 4.41465 9.41601 4.37645 10.9346 4.37581C12.6645 4.37516 14.3934 4.37581 16.2426 4.37581Z" fill="url(#paint2_linear_2197_22)"/>
<path d="M36.238 5.857V10.7191C35.705 10.4849 35.1635 10.2872 34.6578 10.0116C34.2047 9.76439 33.8439 9.82226 33.4107 10.0962C31.1785 11.5099 28.9284 12.8887 26.6823 14.2776C26.4395 14.4278 26.1911 14.5666 25.8863 14.7459C25.8863 13.2931 25.8648 11.9551 25.9096 10.6194C25.9163 10.4187 26.2055 10.1788 26.4115 10.0437C27.3599 9.42253 28.3261 8.83379 29.283 8.22833C29.4761 8.10624 29.6576 7.96073 29.8663 7.81053C29.5535 7.38771 28.7368 7.45428 29.0773 6.56516L36.238 5.857Z" fill="url(#paint3_linear_2197_22)"/>
<path d="M43.7225 23.5137C43.7225 23.6186 43.7902 23.671 43.9264 23.671H51.2503C50.9633 24.1325 50.7146 24.5208 50.5041 24.8358C50.2936 25.1507 50.067 25.4779 49.8241 25.8171C49.5827 26.1607 49.3718 26.4439 49.1912 26.6667H40.965C40.6034 26.6667 40.3434 26.5288 40.1849 26.2532C40.0265 25.9775 39.9475 25.6378 39.948 25.234C39.9519 24.8325 40.0128 24.4335 40.129 24.0488C40.2498 23.6296 40.4164 23.2246 40.6257 22.8411C40.8656 22.4552 41.1379 22.0899 41.4397 21.7491C41.7855 21.3474 42.1593 20.9701 42.5583 20.62C42.9306 20.289 43.336 19.9963 43.7682 19.7464C44.1754 19.5159 44.537 19.4004 44.8529 19.3999H48.289C48.3754 19.3662 48.4586 19.3251 48.5377 19.2768C48.6564 19.2151 48.7698 19.144 48.877 19.0643C48.9219 19.0344 48.9822 18.9915 49.0573 18.9412C49.1323 18.891 49.1706 18.8561 49.1706 18.8408L49.2383 18.7287C49.359 18.5947 49.4193 18.3935 49.4193 18.1252C49.4193 17.9461 49.3664 17.8565 49.2611 17.8565H42.049C42.1855 17.5915 42.3366 17.3342 42.5016 17.0856C42.6817 16.8099 42.8701 16.5379 43.0668 16.2695C43.2636 16.0011 43.4598 15.7439 43.6556 15.4978L44.1979 14.8157H52.1791C52.3503 14.808 52.5201 14.8507 52.6669 14.9382C52.8137 15.0258 52.931 15.1544 53.004 15.3078C53.1767 15.6354 53.2633 16.0378 53.2638 16.5148C53.2692 17.3125 53.0664 18.0981 52.6751 18.7956C52.4303 19.2151 52.1425 19.6086 51.8163 19.9699C51.4564 20.3766 51.067 20.7569 50.6513 21.1077C50.2653 21.4381 49.8447 21.7266 49.3965 21.9682C48.9741 22.1919 48.5816 22.3038 48.219 22.3038H44.6042C44.5474 22.3059 44.4918 22.32 44.4411 22.3451C44.3903 22.3702 44.3455 22.4058 44.3098 22.4494C44.2167 22.5493 44.1334 22.6578 44.0611 22.7734L43.7225 23.5137Z" fill="#044973"/>
<path d="M62.4005 23.8717C62.1482 24.3763 61.8388 24.8491 61.4786 25.2805C61.1524 25.6756 60.7664 26.0152 60.3352 26.2866C59.9538 26.5318 59.5127 26.6635 59.0617 26.6667C58.3488 26.6673 57.6382 26.585 56.9436 26.4213C56.2722 26.2688 55.6394 25.9755 55.0855 25.56C54.5443 25.1499 54.1053 24.5947 53.7685 23.8943C53.4316 23.1939 53.2635 22.3069 53.2639 21.2333V21.1881C53.27 20.4353 53.3922 19.6882 53.6263 18.9741C53.8539 18.2424 54.1867 17.549 54.6139 16.9167C55.0084 16.329 55.5028 15.8179 56.0739 15.4074C56.6299 15.0128 57.2151 14.8153 57.8297 14.8148H65.1004C64.7635 15.3817 64.4234 15.9156 64.0799 16.4165C63.7323 16.9172 63.3469 17.3894 62.9272 17.8289H58.3614C58.0684 17.8289 57.8014 17.9745 57.5603 18.2658C57.3074 18.575 57.097 18.9179 56.935 19.285H61.698C62.2249 19.4195 62.598 19.6544 62.8171 19.9898C63.0363 20.3252 63.1461 20.7537 63.1466 21.2755C63.1467 21.4401 63.1357 21.6045 63.1137 21.7676C63.0918 21.9317 63.0663 22.1106 63.0372 22.3042C62.8688 22.8441 62.6558 23.3685 62.4005 23.8717ZM56.935 22.1244L57.0443 22.3261C57.1888 22.6389 57.3538 22.9415 57.5381 23.2317C57.7063 23.4924 57.915 23.6227 58.1642 23.6227H59.1739L59.6127 22.7731C59.5832 22.6393 59.5428 22.5083 59.4919 22.3814C59.4405 22.2552 59.3052 22.1695 59.086 22.1244H56.935Z" fill="#044973"/>
<path d="M78.3468 26.6667L80.2255 20.0029L75.4854 26.6667H74.2623L73.3016 20.0029L71.4229 26.6667H68.0595L71.445 14.8148H75.6603L76.5555 20.763L80.837 14.8148H85.0743L81.6889 26.6667H78.3468Z" fill="#044973"/>
<path d="M86.1837 14.8148H89.513L86.1837 26.6667H82.855L86.1837 14.8148Z" fill="#044973"/>
<path d="M87.2937 26.6667L90.6352 14.8148H93.9338L91.4346 23.6482H96.909C96.923 23.6482 96.8556 23.7749 96.7047 24.0282C96.5538 24.2816 96.3699 24.5765 96.1545 24.9114C95.939 25.2463 95.713 25.5826 95.4758 25.9175C95.2957 26.1816 95.0975 26.432 94.8827 26.6667H87.2937Z" fill="#044973"/>
<path d="M110.967 14.8148C110.837 15.0946 110.691 15.367 110.529 15.6309C110.329 15.9668 110.115 16.2985 109.885 16.6261C109.681 16.922 109.458 17.2057 109.218 17.4757C109.003 17.7144 108.85 17.8338 108.758 17.8338H103.079L102.043 21.3443L103.792 19.2869H108.048L105.401 22.3059H101.743L101.329 23.6477H108.392C108.376 23.6773 108.345 23.7406 108.299 23.8377C108.254 23.9345 108.204 24.0357 108.15 24.1398C108.096 24.2439 108.046 24.3407 108 24.431C107.975 24.486 107.944 24.5384 107.908 24.5875C107.772 24.8056 107.622 25.0147 107.458 25.2136C107.267 25.4524 107.079 25.6797 106.894 25.8957C106.71 26.1117 106.549 26.2942 106.411 26.4432C106.274 26.5888 106.196 26.6667 106.181 26.6667H96.9108L100.477 14.8155L110.967 14.8148Z" fill="#044973"/>
<path d="M116.613 22.9114V22.7775C116.613 22.6531 116.598 22.5292 116.571 22.4083C116.542 22.2816 116.479 22.2182 116.38 22.2182H112.987C112.654 22.2205 112.33 22.1066 112.064 21.8942C111.782 21.6694 111.544 21.3881 111.364 21.0662C111.17 20.7201 111.02 20.3478 110.919 19.9594C110.816 19.5736 110.762 19.1748 110.76 18.7739C110.771 18.3565 110.85 17.9441 110.994 17.555C111.15 17.0985 111.356 16.663 111.609 16.2573C111.842 15.8726 112.128 15.5259 112.457 15.2284C112.767 14.9532 113.086 14.8153 113.411 14.8148H122.063C121.793 15.3211 121.496 15.8282 121.174 16.336C120.833 16.864 120.464 17.3716 120.069 17.8564H114.471C114.344 17.8564 114.235 17.9683 114.143 18.1921C114.064 18.3599 114.017 18.5422 114.004 18.7288V18.8409C114.004 18.8562 114.025 18.8897 114.068 18.9414C114.111 18.9931 114.145 19.0346 114.174 19.0645C114.226 19.1331 114.291 19.1901 114.365 19.232C114.411 19.2651 114.461 19.2916 114.513 19.3106H117.737C118.088 19.2991 118.431 19.4222 118.703 19.6572C118.971 19.8979 119.188 20.1957 119.34 20.531C119.504 20.8889 119.622 21.2689 119.689 21.6604C119.757 22.029 119.792 22.4034 119.795 22.7789V22.9129C119.79 23.3341 119.722 23.7518 119.594 24.1508C119.464 24.5799 119.282 24.9896 119.053 25.3698C118.846 25.7194 118.589 26.0327 118.29 26.2982C118.007 26.5443 117.71 26.6672 117.399 26.6667H108.747C108.85 26.4212 108.967 26.1825 109.097 25.9516C109.274 25.6234 109.461 25.2916 109.659 24.9562C109.857 24.6207 110.037 24.3224 110.2 24.0612C110.362 23.8006 110.465 23.6702 110.507 23.6702H116.272C116.442 23.6702 116.541 23.6025 116.569 23.4685C116.598 23.3288 116.613 23.1862 116.612 23.0432L116.613 22.9114Z" fill="#044973"/>
<path d="M127.242 21.1866C127.248 20.434 127.37 19.687 127.604 18.9731C127.832 18.2417 128.165 17.5485 128.592 16.9162C128.987 16.3286 129.481 15.8177 130.053 15.4073C130.609 15.0128 131.195 14.8153 131.809 14.8148H139.078C138.741 15.3816 138.401 15.9153 138.057 16.4161C137.71 16.9194 137.324 17.3942 136.904 17.8362H132.336C132.156 17.8433 131.982 17.91 131.842 18.0262C131.658 18.1689 131.495 18.3384 131.359 18.5291C131.198 18.7495 131.058 18.9852 130.942 19.233C130.822 19.4813 130.723 19.7394 130.645 20.0045C130.602 20.1836 130.565 20.351 130.535 20.5075C130.508 20.6436 130.494 20.782 130.492 20.9209C130.497 21.231 130.556 21.5377 130.668 21.8264C130.78 22.1391 130.931 22.436 131.117 22.71C131.284 22.9598 131.484 23.1853 131.711 23.3803C131.922 23.5594 132.131 23.6489 132.336 23.6489H136.554C136.276 24.1555 135.968 24.6735 135.632 25.2029C135.292 25.7349 134.894 26.2259 134.446 26.6667H133.039C132.326 26.6673 131.615 26.585 130.92 26.4214C130.249 26.2687 129.618 25.9754 129.065 25.5603C128.523 25.1503 128.084 24.5952 127.747 23.8949C127.411 23.1947 127.242 22.308 127.242 21.2346V21.1866Z" fill="#044973"/>
<path d="M146.3 26.6667L145.928 24.1404C145.856 24.3177 145.772 24.4895 145.676 24.6544C145.537 24.9077 145.376 25.1761 145.194 25.4596C145.012 25.743 144.833 26.0039 144.658 26.2422C144.482 26.481 144.351 26.6225 144.263 26.6667H136.859C136.867 26.6129 136.882 26.5604 136.902 26.5101V26.4432L143.211 16.1566C143.261 16.0288 143.327 15.9086 143.409 15.7991C143.616 15.5003 143.855 15.2262 144.122 14.9823C144.246 14.8706 144.352 14.8148 144.44 14.8148H147.375C147.492 14.8148 147.598 14.8971 147.693 15.0609C147.799 15.2518 147.884 15.4542 147.945 15.6644C148.02 15.9107 148.082 16.1608 148.131 16.4136C148.183 16.675 148.23 16.8948 148.274 17.0732L149.435 26.6667H146.3ZM142.378 23.6708H145.927L145.313 18.415L142.378 23.4465V23.6708Z" fill="#044973"/>
<path d="M153.047 14.815H161.602C161.765 14.8125 161.926 14.842 162.077 14.9016C162.227 14.9612 162.363 15.0496 162.476 15.1614C162.726 15.4058 162.924 15.6942 163.059 16.0107C163.209 16.3558 163.319 16.7158 163.386 17.0841C163.451 17.4202 163.486 17.7611 163.49 18.103C163.498 18.6959 163.37 19.2833 163.117 19.8242C162.885 20.3233 162.565 20.7808 162.173 21.1771C161.81 21.5444 161.379 21.8438 160.902 22.0599C160.489 22.2565 160.036 22.3633 159.574 22.3728H154.329L153.023 26.6667H149.435L153.047 14.815ZM154.655 21.2528L156.451 19.3526H159.434C159.449 19.3526 159.481 19.3191 159.527 19.2522C159.579 19.177 159.626 19.0987 159.667 19.0178C159.714 18.9283 159.76 18.8424 159.807 18.7602C159.845 18.7028 159.869 18.6378 159.877 18.5702L159.923 18.4589C159.9 18.4253 159.884 18.387 159.877 18.3468C159.826 18.2402 159.764 18.1392 159.69 18.0455C159.597 17.9189 159.535 17.8548 159.504 17.8548H155.681L154.655 21.2528Z" fill="#044973"/>
<path d="M165.34 14.8148H168.669L165.34 26.6667H162.011L165.34 14.8148Z" fill="#044973"/>
<path d="M172.054 17.834H168.669V17.8114C168.74 17.6401 168.826 17.4754 168.927 17.3193C169.084 17.0514 169.275 16.7534 169.499 16.4253C169.723 16.0971 169.951 15.7802 170.182 15.4744C170.355 15.2334 170.554 15.0122 170.776 14.8148H179.766C179.64 15.0948 179.498 15.3672 179.34 15.631C179.146 15.9668 178.936 16.2986 178.713 16.6262C178.513 16.9223 178.296 17.206 178.062 17.4758C177.853 17.7146 177.704 17.834 177.614 17.834H175.484L172.906 26.6667H169.476L172.054 17.834Z" fill="#044973"/>
<path d="M184.773 26.6667L184.4 24.1405C184.329 24.3178 184.245 24.4896 184.149 24.6545C184.01 24.9078 183.849 25.1762 183.666 25.4596C183.484 25.7431 183.305 26.0039 183.129 26.2422C182.954 26.481 182.822 26.6223 182.735 26.6667H175.327C175.335 26.6128 175.35 26.5602 175.371 26.5101V26.4432L181.682 16.1572C181.731 16.0295 181.798 15.9092 181.879 15.7998C181.984 15.6473 182.097 15.5014 182.219 15.363C182.335 15.2286 182.46 15.1014 182.591 14.9823C182.715 14.8706 182.821 14.8148 182.909 14.8148H185.843C185.96 14.8148 186.066 14.8971 186.161 15.0609C186.267 15.2517 186.352 15.4542 186.413 15.6644C186.488 15.9107 186.55 16.1607 186.599 16.4135C186.65 16.6746 186.698 16.8945 186.742 17.0731L187.903 26.6659L184.773 26.6667ZM180.849 23.6709H184.399L183.785 18.4155L180.849 23.4467V23.6709Z" fill="#044973"/>
<path d="M189.383 26.6667L192.725 14.8148H196.024L193.523 23.6482H198.998C199.012 23.6482 198.944 23.7749 198.793 24.0282C198.643 24.2816 198.459 24.576 198.244 24.9114C198.028 25.2467 197.802 25.5821 197.565 25.9175C197.385 26.1816 197.186 26.432 196.972 26.6667H189.383Z" fill="#044973"/>
</g>
<defs>
<linearGradient id="paint0_linear_2197_22" x1="13.2239" y1="13.1517" x2="18.7216" y2="41.1284" gradientUnits="userSpaceOnUse">
<stop stop-color="#2A3A5D"/>
<stop offset="1" stop-color="#00A551"/>
</linearGradient>
<linearGradient id="paint1_linear_2197_22" x1="18.4939" y1="14.0388" x2="23.4564" y2="18.7389" gradientUnits="userSpaceOnUse">
<stop stop-color="#044973"/>
<stop offset="0.81" stop-color="#00A551"/>
</linearGradient>
<linearGradient id="paint2_linear_2197_22" x1="10.0427" y1="16.6722" x2="17.5466" y2="25.0756" gradientUnits="userSpaceOnUse">
<stop stop-color="#044973"/>
<stop offset="0.81" stop-color="#00A551"/>
</linearGradient>
<linearGradient id="paint3_linear_2197_22" x1="26.2771" y1="4.50927" x2="33.8673" y2="12.2481" gradientUnits="userSpaceOnUse">
<stop offset="0.08" stop-color="#2A3A5D"/>
<stop offset="1" stop-color="#00A551"/>
</linearGradient>
<clipPath id="clip0_2197_22">
<rect width="199" height="40" fill="white"/>
</clipPath>
</defs>
</svg>
