<svg width="186" height="132" viewBox="0 0 186 132" fill="none" xmlns="http://www.w3.org/2000/svg">
<g clip-path="url(#clip0_2211_2)">
<mask id="mask0_2211_2" style="mask-type:luminance" maskUnits="userSpaceOnUse" x="0" y="0" width="186" height="132">
<path d="M186 0H0V132H186V0Z" fill="white"/>
</mask>
<g mask="url(#mask0_2211_2)">
<path d="M71.5195 58.2778C71.5195 61.2127 71.5814 63.6979 71.4772 66.1747C71.4501 66.8154 70.9936 67.5153 70.5735 68.0462C67.9057 71.4139 58.3778 83.1038 57.3937 87.5087C56.4824 91.5882 57.9323 94.5434 61.6732 95.9517C64.8068 97.1352 68.0361 96.9517 71.2434 96.5029C78.339 95.5121 85.0415 93.0066 91.5544 90.0455C96.7511 87.6786 101.925 85.1207 106.752 82.0269C113.28 77.8434 119.343 72.8975 123.986 66.348C125.213 64.615 126.181 62.7131 126.86 60.7021C127.904 57.5745 127.029 55.7891 124.15 54.4468C123.079 53.9506 121.912 53.6328 120.762 53.402C119.612 53.1712 118.415 53.1526 117.136 53.0309V49.6826C121.561 49.123 125.907 48.9311 129.58 51.801C132.745 54.2735 133.962 57.8703 133.117 62.0648C132.347 65.8898 130.447 69.0919 128.108 72.0395C123.789 77.4799 118.633 81.911 112.988 85.7031C99.8001 94.562 85.5997 100.829 70.2085 103.925C65.8045 104.81 61.3776 105.033 56.8982 104.219C49.7197 102.915 47.0434 95.748 48.7677 89.764C50.9172 82.3438 55.4059 76.6473 60.1538 71.0741C61.4047 69.6067 69.8257 60.0385 71.5195 58.2778Z" fill="url(#paint0_linear_2211_2)"/>
<path d="M95.0767 86.9627V0.000976562C100.888 0.000976562 106.408 0.000976562 111.93 0.000976562C113.433 0.000976562 113.195 1.13961 113.208 2.02466C113.278 6.5268 113.336 11.0289 113.344 15.5319C113.378 34.56 113.375 53.588 113.45 72.616C113.456 74.1511 113.064 75.2289 111.789 76.0894C107.114 79.2449 102.479 82.4614 97.8021 85.6161C97.0407 86.1266 96.148 86.4403 95.0767 86.9627Z" fill="url(#paint1_linear_2211_2)"/>
<path d="M91.6483 11.5857C91.6483 12.6001 91.6483 13.3161 91.6483 14.0295C91.6811 37.7102 91.7008 61.3908 91.7076 85.0714C91.7076 85.7866 91.2841 86.9108 90.7446 87.1543C85.1473 89.6902 79.4856 92.0782 73.2379 94.7697C73.2379 91.3039 73.2311 88.5262 73.2379 85.7477C73.3101 62.1516 73.3875 38.556 73.4699 14.9611C73.4826 11.6871 72.7077 11.5874 76.9211 11.5857C81.7207 11.584 86.5176 11.5857 91.6483 11.5857Z" fill="url(#paint2_linear_2211_2)"/>
<path d="M144.82 15.5537V27.8403C143.35 27.2486 141.856 26.7491 140.461 26.0525C139.211 25.4278 138.216 25.5741 137.021 26.2664C130.863 29.8387 124.656 33.3231 118.459 36.8328C117.789 37.2123 117.104 37.5632 116.263 38.0162C116.263 34.345 116.204 30.9638 116.328 27.5884C116.346 27.0813 117.144 26.4752 117.712 26.1337C120.329 24.5639 122.994 23.0762 125.634 21.5461C126.166 21.2376 126.667 20.8699 127.243 20.4903C126.38 19.4219 124.127 19.5901 125.066 17.3432L144.82 15.5537Z" fill="url(#paint3_linear_2211_2)"/>
</g>
<path d="M1.33896 127V124.159L6.76509 119.67C7.12494 119.372 7.43271 119.093 7.68839 118.832C7.9488 118.567 8.14767 118.295 8.28498 118.016C8.42702 117.736 8.49805 117.426 8.49805 117.085C8.49805 116.711 8.41755 116.392 8.25657 116.126C8.10032 115.861 7.88252 115.658 7.60316 115.516C7.3238 115.369 7.00184 115.295 6.63725 115.295C6.27267 115.295 5.9507 115.369 5.67134 115.516C5.39672 115.662 5.18365 115.878 5.03214 116.162C4.88062 116.446 4.80487 116.792 4.80487 117.199H1.05487C1.05487 116.176 1.28451 115.295 1.74379 114.557C2.20307 113.818 2.85174 113.25 3.68981 112.852C4.52788 112.455 5.51036 112.256 6.63725 112.256C7.80202 112.256 8.81055 112.443 9.66282 112.817C10.5198 113.186 11.1803 113.707 11.6444 114.379C12.1131 115.052 12.3475 115.84 12.3475 116.744C12.3475 117.303 12.2315 117.859 11.9995 118.413C11.7675 118.963 11.3508 119.571 10.7495 120.239C10.1481 120.906 9.2935 121.702 8.18555 122.625L6.82191 123.761V123.847H12.5037V127H1.33896ZM20.3482 127.199C19.5007 127.199 18.6957 127.066 17.9334 126.801C17.1758 126.531 16.5035 126.107 15.9164 125.53C15.3292 124.952 14.8676 124.199 14.5314 123.271C14.2 122.343 14.0366 121.219 14.0414 119.898C14.0461 118.719 14.1976 117.658 14.4959 116.716C14.7989 115.774 15.2275 114.971 15.7814 114.308C16.3401 113.645 17.0078 113.139 17.7843 112.788C18.5608 112.433 19.4249 112.256 20.3766 112.256C21.4467 112.256 22.3889 112.462 23.2033 112.874C24.0177 113.286 24.6664 113.837 25.1493 114.528C25.637 115.215 25.9211 115.973 26.0016 116.801H22.1096C22.0196 116.389 21.8113 116.089 21.4846 115.899C21.1626 115.705 20.7933 115.608 20.3766 115.608C19.548 115.608 18.9396 115.968 18.5513 116.688C18.1678 117.407 17.9713 118.354 17.9618 119.528H18.0471C18.2317 119.083 18.5111 118.702 18.8851 118.385C19.2592 118.068 19.6948 117.824 20.1919 117.653C20.6891 117.483 21.2147 117.398 21.7686 117.398C22.6493 117.398 23.4187 117.597 24.0769 117.994C24.7398 118.392 25.2559 118.937 25.6252 119.628C25.9945 120.319 26.1768 121.11 26.1721 122C26.1768 123.042 25.9306 123.953 25.4334 124.734C24.941 125.516 24.2568 126.122 23.3809 126.553C22.5049 126.983 21.494 127.199 20.3482 127.199ZM20.3198 124.216C20.7128 124.216 21.0608 124.126 21.3638 123.946C21.6716 123.766 21.9107 123.52 22.0811 123.207C22.2563 122.895 22.3416 122.54 22.3368 122.142C22.3416 121.74 22.2563 121.384 22.0811 121.077C21.9107 120.764 21.6716 120.518 21.3638 120.338C21.0608 120.158 20.7128 120.068 20.3198 120.068C20.031 120.068 19.7634 120.12 19.5172 120.224C19.2757 120.324 19.065 120.468 18.8851 120.658C18.7052 120.842 18.5632 121.062 18.459 121.318C18.3596 121.569 18.3075 121.844 18.3027 122.142C18.3075 122.54 18.3974 122.895 18.5726 123.207C18.7478 123.52 18.9869 123.766 19.29 123.946C19.593 124.126 19.9363 124.216 20.3198 124.216ZM31.916 112.455H36.8308L40.2115 120.693H40.3819L43.7626 112.455H48.6774V127H44.8137V118.591H44.7001L41.4615 126.886H39.1319L35.8933 118.534H35.7797V127H31.916V112.455ZM54.4977 112.455V127H50.5488V112.455H54.4977ZM56.3691 127V112.455H60.318V123.818H66.1987V127H56.3691ZM67.7949 127V112.455H78.2779V115.636H71.7438V118.136H77.7381V121.318H71.7438V123.818H78.2495V127H67.7949ZM88.0772 117C88.0394 116.527 87.8618 116.157 87.5446 115.892C87.2321 115.627 86.7562 115.494 86.117 115.494C85.7098 115.494 85.376 115.544 85.1156 115.643C84.8599 115.738 84.6705 115.868 84.5474 116.034C84.4243 116.2 84.3604 116.389 84.3556 116.602C84.3462 116.777 84.377 116.936 84.448 117.078C84.5237 117.215 84.6421 117.341 84.8031 117.455C84.9641 117.563 85.17 117.663 85.421 117.753C85.6719 117.843 85.9702 117.923 86.3159 117.994L87.5091 118.25C88.314 118.42 89.0029 118.645 89.5758 118.925C90.1487 119.204 90.6175 119.533 90.9821 119.912C91.3467 120.286 91.6142 120.707 91.7846 121.176C91.9598 121.645 92.0498 122.156 92.0545 122.71C92.0498 123.667 91.8107 124.476 91.3372 125.139C90.8637 125.802 90.1866 126.306 89.3059 126.652C88.43 126.998 87.3765 127.17 86.1454 127.17C84.8812 127.17 83.778 126.983 82.8358 126.609C81.8983 126.235 81.1691 125.66 80.6483 124.884C80.1322 124.102 79.8717 123.103 79.867 121.886H83.617C83.6407 122.331 83.752 122.705 83.9508 123.009C84.1497 123.312 84.429 123.541 84.7889 123.697C85.1535 123.854 85.5867 123.932 86.0886 123.932C86.51 123.932 86.8627 123.88 87.1468 123.776C87.4309 123.671 87.6464 123.527 87.7931 123.342C87.9399 123.158 88.0157 122.947 88.0204 122.71C88.0157 122.488 87.9423 122.294 87.8002 122.128C87.6629 121.957 87.4357 121.806 87.1184 121.673C86.8012 121.536 86.3727 121.408 85.8329 121.29L84.3841 120.977C83.0962 120.698 82.0806 120.232 81.3372 119.578C80.5985 118.92 80.2316 118.023 80.2363 116.886C80.2316 115.963 80.4778 115.156 80.975 114.464C81.4769 113.768 82.1705 113.226 83.0559 112.838C83.9461 112.45 84.9664 112.256 86.117 112.256C87.2913 112.256 88.3069 112.452 89.1639 112.845C90.0209 113.238 90.6814 113.792 91.1454 114.507C91.6142 115.217 91.8509 116.048 91.8556 117H88.0772ZM111.121 117.909H107.115C107.086 117.578 107.011 117.277 106.888 117.007C106.769 116.737 106.604 116.505 106.39 116.311C106.182 116.112 105.929 115.961 105.631 115.857C105.332 115.748 104.994 115.693 104.615 115.693C103.952 115.693 103.391 115.854 102.932 116.176C102.477 116.498 102.131 116.96 101.895 117.561C101.663 118.162 101.547 118.884 101.547 119.727C101.547 120.617 101.665 121.363 101.902 121.964C102.143 122.561 102.491 123.011 102.946 123.314C103.4 123.612 103.947 123.761 104.586 123.761C104.951 123.761 105.278 123.716 105.567 123.626C105.855 123.532 106.106 123.397 106.319 123.222C106.532 123.046 106.705 122.836 106.838 122.589C106.975 122.339 107.068 122.057 107.115 121.744L111.121 121.773C111.073 122.388 110.9 123.016 110.602 123.655C110.304 124.289 109.88 124.876 109.331 125.416C108.786 125.951 108.112 126.382 107.307 126.709C106.502 127.036 105.567 127.199 104.501 127.199C103.166 127.199 101.968 126.912 100.907 126.339C99.8516 125.767 99.0159 124.924 98.4004 123.811C97.7896 122.698 97.4842 121.337 97.4842 119.727C97.4842 118.108 97.7967 116.744 98.4217 115.636C99.0467 114.524 99.8895 113.683 100.95 113.115C102.011 112.542 103.194 112.256 104.501 112.256C105.42 112.256 106.265 112.381 107.037 112.632C107.809 112.883 108.486 113.25 109.068 113.733C109.65 114.211 110.119 114.801 110.474 115.501C110.829 116.202 111.045 117.005 111.121 117.909ZM116.241 127H111.98L116.781 112.455H122.179L126.98 127H122.719L119.537 116.46H119.423L116.241 127ZM115.446 121.261H123.457V124.216H115.446V121.261ZM128.381 127V112.455H134.659C135.739 112.455 136.683 112.668 137.493 113.094C138.303 113.52 138.932 114.119 139.382 114.891C139.832 115.662 140.057 116.564 140.057 117.597C140.057 118.638 139.825 119.54 139.361 120.303C138.902 121.065 138.255 121.652 137.422 122.064C136.593 122.476 135.625 122.682 134.517 122.682H130.767V119.614H133.722C134.186 119.614 134.581 119.533 134.908 119.372C135.239 119.206 135.493 118.972 135.668 118.669C135.848 118.366 135.938 118.009 135.938 117.597C135.938 117.18 135.848 116.825 135.668 116.531C135.493 116.233 135.239 116.006 134.908 115.849C134.581 115.688 134.186 115.608 133.722 115.608H132.33V127H128.381ZM145.455 112.455V127H141.506V112.455H145.455ZM146.928 115.636V112.455H159.57V115.636H155.195V127H151.303V115.636H146.928ZM162.999 127H158.738L163.539 112.455H168.937L173.738 127H169.476L166.295 116.46H166.181L162.999 127ZM162.204 121.261H170.215V124.216H162.204V121.261ZM175.139 127V112.455H179.088V123.818H184.968V127H175.139Z" fill="#044973"/>
</g>
<defs>
<linearGradient id="paint0_linear_2211_2" x1="82.87" y1="35.6876" x2="96.8572" y2="107.886" gradientUnits="userSpaceOnUse">
<stop stop-color="#2A3A5D"/>
<stop offset="1" stop-color="#00A551"/>
</linearGradient>
<linearGradient id="paint1_linear_2211_2" x1="97.1474" y1="36.806" x2="110.113" y2="49.7952" gradientUnits="userSpaceOnUse">
<stop stop-color="#044973"/>
<stop offset="0.81" stop-color="#00A551"/>
</linearGradient>
<linearGradient id="paint2_linear_2211_2" x1="74.4464" y1="43.6992" x2="93.8756" y2="66.8144" gradientUnits="userSpaceOnUse">
<stop stop-color="#044973"/>
<stop offset="0.81" stop-color="#00A551"/>
</linearGradient>
<linearGradient id="paint3_linear_2211_2" x1="117.341" y1="12.1479" x2="136.416" y2="33.3786" gradientUnits="userSpaceOnUse">
<stop offset="0.08" stop-color="#2A3A5D"/>
<stop offset="1" stop-color="#00A551"/>
</linearGradient>
<clipPath id="clip0_2211_2">
<rect width="186" height="132" fill="white"/>
</clipPath>
</defs>
</svg>
