<svg width="190" height="40" viewBox="0 0 190 40" fill="none" xmlns="http://www.w3.org/2000/svg">
<g clip-path="url(#clip0_2211_25)">
<mask id="mask0_2211_25" style="mask-type:luminance" maskUnits="userSpaceOnUse" x="0" y="0" width="190" height="40">
<path d="M190 0H0V40H190V0Z" fill="white"/>
</mask>
<g mask="url(#mask0_2211_25)">
<path d="M8.88329 21.9147C8.88329 23.0531 8.90693 24.0172 8.8671 24.9779C8.85673 25.2265 8.68216 25.498 8.52151 25.7039C7.50128 27.0102 3.8576 31.5448 3.48125 33.2535C3.13276 34.8359 3.68724 35.9823 5.11783 36.5285C6.3162 36.9876 7.55116 36.9164 8.7777 36.7423C11.4912 36.358 14.0544 35.3861 16.5451 34.2375C18.5324 33.3194 20.511 32.3271 22.3568 31.127C24.8533 29.5043 27.172 27.5857 28.9475 25.0451C29.4168 24.3729 29.7871 23.6352 30.0467 22.8551C30.4461 21.6418 30.1115 20.9493 29.0103 20.4286C28.6009 20.2361 28.1546 20.1128 27.7148 20.0233C27.275 19.9338 26.8173 19.9266 26.3279 19.8794V18.5806C28.0202 18.3635 29.6824 18.2891 31.0871 19.4023C32.2974 20.3614 32.7625 21.7566 32.4396 23.3837C32.1452 24.8674 31.4184 26.1095 30.5241 27.2529C28.8723 29.3633 26.9005 31.0821 24.7419 32.5531C19.6984 35.9895 14.2678 38.4205 8.38192 39.6213C6.69773 39.9646 5.0048 40.0512 3.29178 39.7354C0.546558 39.2298 -0.476911 36.4495 0.182514 34.1283C1.00452 31.25 2.7211 29.0403 4.53679 26.8784C5.01516 26.3092 8.23552 22.5977 8.88329 21.9147Z" fill="url(#paint0_linear_2211_25)"/>
<path d="M17.7437 33.2645V-0.0688477C19.8496 -0.0688477 21.8497 -0.0688477 23.851 -0.0688477C24.3955 -0.0688477 24.3092 0.367604 24.3142 0.70685C24.3393 2.43257 24.3602 4.15829 24.3633 5.88433C24.3755 13.178 24.3746 20.4716 24.4016 27.7653C24.4038 28.3537 24.2617 28.7668 23.7998 29.0967C22.1057 30.3062 20.426 31.5391 18.7313 32.7483C18.4554 32.944 18.1319 33.0643 17.7437 33.2645Z" fill="url(#paint1_linear_2211_25)"/>
<path d="M16.2425 4.37578C16.2425 4.76419 16.2425 5.03834 16.2425 5.31152C16.2543 14.379 16.2615 23.4464 16.2639 32.5138C16.2639 32.7877 16.1113 33.2182 15.9168 33.3114C13.8994 34.2824 11.8588 35.1968 9.60705 36.2274C9.60705 34.9003 9.6046 33.8367 9.60705 32.7728C9.63309 23.7377 9.66097 14.7029 9.69068 5.66821C9.69526 4.41462 9.41596 4.37642 10.9345 4.37578C12.6644 4.37513 14.3933 4.37578 16.2425 4.37578Z" fill="url(#paint2_linear_2211_25)"/>
<path d="M36.238 5.85693V10.719C35.705 10.4848 35.1635 10.2871 34.6578 10.0115C34.2047 9.76432 33.8439 9.82219 33.4107 10.0961C31.1785 11.5098 28.9284 12.8886 26.6823 14.2775C26.4395 14.4277 26.1911 14.5665 25.8863 14.7458C25.8863 13.293 25.8648 11.955 25.9096 10.6193C25.9163 10.4186 26.2055 10.1787 26.4115 10.0436C27.3599 9.42246 28.3261 8.83372 29.283 8.22826C29.4761 8.10617 29.6576 7.96066 29.8663 7.81046C29.5535 7.38764 28.7368 7.45421 29.0773 6.56509L36.238 5.85693Z" fill="url(#paint3_linear_2211_25)"/>
<path d="M39.7727 26V23.7273L44.1136 20.1364C44.4015 19.8977 44.6477 19.6742 44.8523 19.4659C45.0606 19.2538 45.2197 19.036 45.3295 18.8125C45.4432 18.589 45.5 18.3409 45.5 18.0682C45.5 17.7689 45.4356 17.5133 45.3068 17.3011C45.1818 17.089 45.0076 16.9261 44.7841 16.8125C44.5606 16.6951 44.303 16.6364 44.0114 16.6364C43.7197 16.6364 43.4621 16.6951 43.2386 16.8125C43.0189 16.9299 42.8485 17.1023 42.7273 17.3295C42.6061 17.5568 42.5455 17.8333 42.5455 18.1591H39.5455C39.5455 17.3409 39.7292 16.6364 40.0966 16.0455C40.464 15.4545 40.983 15 41.6534 14.6818C42.3239 14.3636 43.1098 14.2045 44.0114 14.2045C44.9432 14.2045 45.75 14.3542 46.4318 14.6534C47.1174 14.9489 47.6458 15.3655 48.017 15.9034C48.392 16.4413 48.5795 17.072 48.5795 17.7955C48.5795 18.2424 48.4867 18.6875 48.3011 19.1307C48.1155 19.5701 47.7822 20.0568 47.3011 20.5909C46.8201 21.125 46.1364 21.7614 45.25 22.5L44.1591 23.4091V23.4773H48.7045V26H39.7727ZM54.9801 26.1591C54.3021 26.1591 53.6581 26.053 53.0483 25.8409C52.4422 25.625 51.9044 25.286 51.4347 24.8239C50.965 24.3617 50.5956 23.7595 50.3267 23.017C50.0616 22.2746 49.9309 21.375 49.9347 20.3182C49.9384 19.375 50.0597 18.5265 50.2983 17.7727C50.5407 17.0189 50.8835 16.3769 51.3267 15.8466C51.7737 15.3163 52.3078 14.911 52.929 14.6307C53.5502 14.3466 54.2415 14.2045 55.0028 14.2045C55.8589 14.2045 56.6127 14.3693 57.2642 14.6989C57.9157 15.0284 58.4347 15.4697 58.821 16.0227C59.2112 16.572 59.4384 17.178 59.5028 17.8409H56.3892C56.3172 17.5114 56.1506 17.2708 55.8892 17.1193C55.6316 16.964 55.3362 16.8864 55.0028 16.8864C54.34 16.8864 53.8532 17.1742 53.5426 17.75C53.2358 18.3258 53.0786 19.0833 53.071 20.0227H53.1392C53.2869 19.6667 53.5104 19.3617 53.8097 19.108C54.1089 18.8542 54.4574 18.6591 54.8551 18.5227C55.2528 18.3864 55.6733 18.3182 56.1165 18.3182C56.821 18.3182 57.4366 18.4773 57.9631 18.7955C58.4934 19.1136 58.9063 19.5492 59.2017 20.1023C59.4972 20.6553 59.643 21.2879 59.6392 22C59.643 22.8333 59.446 23.5625 59.0483 24.1875C58.6544 24.8125 58.107 25.2973 57.4062 25.642C56.7055 25.9867 55.8968 26.1591 54.9801 26.1591ZM54.9574 23.7727C55.2718 23.7727 55.5502 23.7008 55.7926 23.5568C56.0388 23.4129 56.2301 23.2159 56.3665 22.9659C56.5066 22.7159 56.5748 22.4318 56.571 22.1136C56.5748 21.7917 56.5066 21.5076 56.3665 21.2614C56.2301 21.0114 56.0388 20.8144 55.7926 20.6705C55.5502 20.5265 55.2718 20.4545 54.9574 20.4545C54.7263 20.4545 54.5123 20.4962 54.3153 20.5795C54.1222 20.6591 53.9536 20.7746 53.8097 20.9261C53.6657 21.0739 53.5521 21.25 53.4688 21.4545C53.3892 21.6553 53.3475 21.875 53.3438 22.1136C53.3475 22.4318 53.4195 22.7159 53.5597 22.9659C53.6998 23.2159 53.8911 23.4129 54.1335 23.5568C54.3759 23.7008 54.6506 23.7727 54.9574 23.7727ZM64.2344 14.3636H68.1662L70.8707 20.9545H71.0071L73.7116 14.3636H77.6435V26H74.5526V19.2727H74.4616L71.8707 25.9091H70.0071L67.4162 19.2273H67.3253V26H64.2344V14.3636ZM82.2997 14.3636V26H79.1406V14.3636H82.2997ZM83.7969 26V14.3636H86.956V23.4545H91.6605V26H83.7969ZM92.9375 26V14.3636H101.324V16.9091H96.0966V18.9091H100.892V21.4545H96.0966V23.4545H101.301V26H92.9375ZM109.163 18C109.133 17.6212 108.991 17.3258 108.737 17.1136C108.487 16.9015 108.107 16.7955 107.595 16.7955C107.269 16.7955 107.002 16.8352 106.794 16.9148C106.589 16.9905 106.438 17.0947 106.339 17.2273C106.241 17.3598 106.19 17.5114 106.186 17.6818C106.179 17.822 106.203 17.9489 106.26 18.0625C106.321 18.1723 106.415 18.2727 106.544 18.3636C106.673 18.4508 106.838 18.5303 107.038 18.6023C107.239 18.6742 107.478 18.7386 107.754 18.7955L108.709 19C109.353 19.1364 109.904 19.3163 110.362 19.5398C110.821 19.7633 111.196 20.0265 111.487 20.3295C111.779 20.6288 111.993 20.9659 112.129 21.3409C112.269 21.7159 112.341 22.125 112.345 22.5682C112.341 23.3333 112.15 23.9811 111.771 24.5114C111.393 25.0417 110.851 25.4451 110.146 25.7216C109.446 25.9981 108.603 26.1364 107.618 26.1364C106.607 26.1364 105.724 25.9867 104.97 25.6875C104.22 25.3883 103.637 24.928 103.22 24.3068C102.807 23.6818 102.599 22.8826 102.595 21.9091H105.595C105.614 22.2652 105.703 22.5644 105.862 22.8068C106.021 23.0492 106.245 23.233 106.533 23.358C106.824 23.483 107.171 23.5455 107.572 23.5455C107.91 23.5455 108.192 23.5038 108.419 23.4205C108.646 23.3371 108.819 23.2216 108.936 23.0739C109.054 22.9261 109.114 22.7576 109.118 22.5682C109.114 22.3902 109.055 22.2348 108.942 22.1023C108.832 21.9659 108.65 21.8447 108.396 21.7386C108.143 21.6288 107.8 21.5265 107.368 21.4318L106.209 21.1818C105.179 20.9583 104.366 20.5852 103.771 20.0625C103.18 19.536 102.887 18.8182 102.891 17.9091C102.887 17.1705 103.084 16.5246 103.482 15.9716C103.883 15.4148 104.438 14.9811 105.146 14.6705C105.858 14.3598 106.675 14.2045 107.595 14.2045C108.535 14.2045 109.347 14.3617 110.033 14.6761C110.718 14.9905 111.247 15.4337 111.618 16.0057C111.993 16.5739 112.182 17.2386 112.186 18H109.163ZM127.598 18.7273H124.393C124.371 18.4621 124.31 18.2216 124.212 18.0057C124.117 17.7898 123.984 17.6042 123.814 17.4489C123.647 17.2898 123.445 17.1686 123.206 17.0852C122.967 16.9981 122.696 16.9545 122.393 16.9545C121.863 16.9545 121.414 17.0833 121.047 17.3409C120.683 17.5985 120.407 17.9678 120.217 18.4489C120.032 18.9299 119.939 19.5076 119.939 20.1818C119.939 20.8939 120.034 21.4905 120.223 21.9716C120.416 22.4489 120.695 22.8087 121.058 23.0511C121.422 23.2898 121.859 23.4091 122.371 23.4091C122.662 23.4091 122.924 23.3731 123.155 23.3011C123.386 23.2254 123.587 23.1174 123.757 22.9773C123.928 22.8371 124.066 22.6686 124.172 22.4716C124.282 22.2708 124.356 22.0455 124.393 21.7955L127.598 21.8182C127.56 22.3106 127.422 22.8125 127.183 23.3239C126.945 23.8314 126.606 24.3011 126.166 24.733C125.731 25.161 125.191 25.5057 124.547 25.767C123.903 26.0284 123.155 26.1591 122.303 26.1591C121.234 26.1591 120.276 25.9299 119.428 25.4716C118.583 25.0133 117.914 24.339 117.422 23.4489C116.933 22.5587 116.689 21.4697 116.689 20.1818C116.689 18.8864 116.939 17.7955 117.439 16.9091C117.939 16.0189 118.613 15.3466 119.462 14.892C120.31 14.4337 121.257 14.2045 122.303 14.2045C123.037 14.2045 123.714 14.3049 124.331 14.5057C124.948 14.7064 125.49 15 125.956 15.3864C126.422 15.7689 126.797 16.2405 127.081 16.8011C127.365 17.3617 127.537 18.0038 127.598 18.7273ZM131.695 26H128.286L132.126 14.3636H136.445L140.286 26H136.876L134.331 17.5682H134.24L131.695 26ZM131.058 21.4091H137.467V23.7727H131.058V21.4091ZM141.406 26V14.3636H146.429C147.293 14.3636 148.048 14.5341 148.696 14.875C149.344 15.2159 149.848 15.6951 150.207 16.3125C150.567 16.9299 150.747 17.6515 150.747 18.4773C150.747 19.3106 150.562 20.0322 150.19 20.642C149.823 21.2519 149.306 21.7216 148.639 22.0511C147.976 22.3807 147.202 22.5455 146.315 22.5455H143.315V20.0909H145.679C146.05 20.0909 146.366 20.0265 146.628 19.8977C146.893 19.7652 147.096 19.5777 147.236 19.3352C147.38 19.0928 147.452 18.8068 147.452 18.4773C147.452 18.1439 147.38 17.8598 147.236 17.625C147.096 17.3864 146.893 17.2045 146.628 17.0795C146.366 16.9508 146.05 16.8864 145.679 16.8864H144.565V26H141.406ZM155.065 14.3636V26H151.906V14.3636H155.065ZM156.244 16.9091V14.3636H166.358V16.9091H162.858V26H159.744V16.9091H156.244ZM169.101 26H165.692L169.533 14.3636H173.851L177.692 26H174.283L171.737 17.5682H171.646L169.101 26ZM168.464 21.4091H174.874V23.7727H168.464V21.4091ZM178.812 26V14.3636H181.972V23.4545H186.676V26H178.812Z" fill="#044973"/>
</g>
</g>
<defs>
<linearGradient id="paint0_linear_2211_25" x1="13.224" y1="13.1518" x2="18.7217" y2="41.1285" gradientUnits="userSpaceOnUse">
<stop stop-color="#2A3A5D"/>
<stop offset="1" stop-color="#00A551"/>
</linearGradient>
<linearGradient id="paint1_linear_2211_25" x1="18.494" y1="14.0389" x2="23.4565" y2="18.739" gradientUnits="userSpaceOnUse">
<stop stop-color="#044973"/>
<stop offset="0.81" stop-color="#00A551"/>
</linearGradient>
<linearGradient id="paint2_linear_2211_25" x1="10.0426" y1="16.6722" x2="17.5465" y2="25.0756" gradientUnits="userSpaceOnUse">
<stop stop-color="#044973"/>
<stop offset="0.81" stop-color="#00A551"/>
</linearGradient>
<linearGradient id="paint3_linear_2211_25" x1="26.2771" y1="4.5092" x2="33.8673" y2="12.248" gradientUnits="userSpaceOnUse">
<stop offset="0.08" stop-color="#2A3A5D"/>
<stop offset="1" stop-color="#00A551"/>
</linearGradient>
<clipPath id="clip0_2211_25">
<rect width="190" height="40" fill="white"/>
</clipPath>
</defs>
</svg>
