<svg width="186" height="131" viewBox="0 0 186 131" fill="none" xmlns="http://www.w3.org/2000/svg">
<g clip-path="url(#clip0_2212_194)">
<path d="M71.5194 58.2778C71.5194 61.2127 71.5813 63.6979 71.4771 66.1747C71.45 66.8154 70.9935 67.5153 70.5734 68.0462C67.9056 71.4139 58.3777 83.1038 57.3936 87.5087C56.4823 91.5882 57.9322 94.5434 61.6731 95.9517C64.8067 97.1351 68.036 96.9517 71.2433 96.5029C78.3389 95.5121 85.0414 93.0066 91.5543 90.0455C96.751 87.6786 101.925 85.1207 106.752 82.0269C113.28 77.8434 119.343 72.8975 123.986 66.348C125.213 64.615 126.181 62.7131 126.86 60.7021C127.904 57.5745 127.029 55.7891 124.15 54.4468C123.079 53.9506 121.912 53.6328 120.762 53.402C119.612 53.1712 118.415 53.1526 117.136 53.0309V49.6826C121.561 49.123 125.907 48.9311 129.58 51.801C132.745 54.2735 133.962 57.8703 133.117 62.0648C132.347 65.8898 130.447 69.0919 128.108 72.0395C123.789 77.4799 118.633 81.911 112.988 85.7031C99.8 94.562 85.5996 100.829 70.2084 103.925C65.8044 104.81 61.3775 105.033 56.8981 104.219C49.7196 102.915 47.0433 95.748 48.7676 89.764C50.9171 82.3438 55.4058 76.6473 60.1537 71.0741C61.4046 69.6067 69.8256 60.0385 71.5194 58.2778Z" fill="url(#paint0_linear_2212_194)"/>
<path d="M95.0767 86.9627V0.000976562C100.888 0.000976562 106.408 0.000976562 111.93 0.000976562C113.433 0.000976562 113.195 1.13961 113.208 2.02466C113.278 6.5268 113.336 11.0289 113.344 15.5319C113.378 34.56 113.375 53.588 113.45 72.616C113.456 74.1511 113.064 75.2289 111.789 76.0894C107.114 79.2449 102.479 82.4614 97.8021 85.6161C97.0407 86.1266 96.148 86.4403 95.0767 86.9627Z" fill="url(#paint1_linear_2212_194)"/>
<path d="M91.6483 11.5857C91.6483 12.6001 91.6483 13.3161 91.6483 14.0295C91.6811 37.7102 91.7008 61.3908 91.7076 85.0714C91.7076 85.7866 91.2841 86.9108 90.7446 87.1543C85.1473 89.6902 79.4856 92.0782 73.2379 94.7697C73.2379 91.3039 73.2311 88.5262 73.2379 85.7477C73.3101 62.1516 73.3875 38.556 73.4699 14.9611C73.4826 11.6871 72.7077 11.5874 76.9211 11.5857C81.7207 11.584 86.5176 11.5857 91.6483 11.5857Z" fill="url(#paint2_linear_2212_194)"/>
<path d="M144.82 15.5537V27.8403C143.35 27.2486 141.856 26.7491 140.461 26.0525C139.211 25.4278 138.216 25.5741 137.021 26.2664C130.863 29.8387 124.656 33.3231 118.459 36.8328C117.789 37.2123 117.104 37.5632 116.263 38.0162C116.263 34.345 116.204 30.9638 116.328 27.5884C116.346 27.0813 117.144 26.4752 117.712 26.1337C120.329 24.5639 122.994 23.0762 125.634 21.5461C126.166 21.2376 126.667 20.8699 127.243 20.4903C126.38 19.4219 124.127 19.5901 125.066 17.3432L144.82 15.5537Z" fill="url(#paint3_linear_2212_194)"/>
<path d="M1.33896 129V126.159L6.76509 121.67C7.12494 121.372 7.43271 121.093 7.68839 120.832C7.9488 120.567 8.14767 120.295 8.28498 120.016C8.42702 119.736 8.49805 119.426 8.49805 119.085C8.49805 118.711 8.41755 118.392 8.25657 118.126C8.10032 117.861 7.88252 117.658 7.60316 117.516C7.3238 117.369 7.00184 117.295 6.63725 117.295C6.27267 117.295 5.9507 117.369 5.67134 117.516C5.39672 117.662 5.18365 117.878 5.03214 118.162C4.88062 118.446 4.80487 118.792 4.80487 119.199H1.05487C1.05487 118.176 1.28451 117.295 1.74379 116.557C2.20307 115.818 2.85174 115.25 3.68981 114.852C4.52788 114.455 5.51036 114.256 6.63725 114.256C7.80202 114.256 8.81055 114.443 9.66282 114.817C10.5198 115.186 11.1803 115.707 11.6444 116.379C12.1131 117.052 12.3475 117.84 12.3475 118.744C12.3475 119.303 12.2315 119.859 11.9995 120.413C11.7675 120.963 11.3508 121.571 10.7495 122.239C10.1481 122.906 9.2935 123.702 8.18555 124.625L6.82191 125.761V125.847H12.5037V129H1.33896ZM20.3482 129.199C19.5007 129.199 18.6957 129.066 17.9334 128.801C17.1758 128.531 16.5035 128.107 15.9164 127.53C15.3292 126.952 14.8676 126.199 14.5314 125.271C14.2 124.343 14.0366 123.219 14.0414 121.898C14.0461 120.719 14.1976 119.658 14.4959 118.716C14.7989 117.774 15.2275 116.971 15.7814 116.308C16.3401 115.645 17.0078 115.139 17.7843 114.788C18.5608 114.433 19.4249 114.256 20.3766 114.256C21.4467 114.256 22.3889 114.462 23.2033 114.874C24.0177 115.286 24.6664 115.837 25.1493 116.528C25.637 117.215 25.9211 117.973 26.0016 118.801H22.1096C22.0196 118.389 21.8113 118.089 21.4846 117.899C21.1626 117.705 20.7933 117.608 20.3766 117.608C19.548 117.608 18.9396 117.968 18.5513 118.688C18.1678 119.407 17.9713 120.354 17.9618 121.528H18.0471C18.2317 121.083 18.5111 120.702 18.8851 120.385C19.2592 120.068 19.6948 119.824 20.1919 119.653C20.6891 119.483 21.2147 119.398 21.7686 119.398C22.6493 119.398 23.4187 119.597 24.0769 119.994C24.7398 120.392 25.2559 120.937 25.6252 121.628C25.9945 122.319 26.1768 123.11 26.1721 124C26.1768 125.042 25.9306 125.953 25.4334 126.734C24.941 127.516 24.2568 128.122 23.3809 128.553C22.5049 128.983 21.494 129.199 20.3482 129.199ZM20.3198 126.216C20.7128 126.216 21.0608 126.126 21.3638 125.946C21.6716 125.766 21.9107 125.52 22.0811 125.207C22.2563 124.895 22.3416 124.54 22.3368 124.142C22.3416 123.74 22.2563 123.384 22.0811 123.077C21.9107 122.764 21.6716 122.518 21.3638 122.338C21.0608 122.158 20.7128 122.068 20.3198 122.068C20.031 122.068 19.7634 122.12 19.5172 122.224C19.2757 122.324 19.065 122.468 18.8851 122.658C18.7052 122.842 18.5632 123.062 18.459 123.318C18.3596 123.569 18.3075 123.844 18.3027 124.142C18.3075 124.54 18.3974 124.895 18.5726 125.207C18.7478 125.52 18.9869 125.766 19.29 125.946C19.593 126.126 19.9363 126.216 20.3198 126.216ZM31.916 114.455H36.8308L40.2115 122.693H40.3819L43.7626 114.455H48.6774V129H44.8137V120.591H44.7001L41.4615 128.886H39.1319L35.8933 120.534H35.7797V129H31.916V114.455ZM54.4977 114.455V129H50.5488V114.455H54.4977ZM56.3691 129V114.455H60.318V125.818H66.1987V129H56.3691ZM67.7949 129V114.455H78.2779V117.636H71.7438V120.136H77.7381V123.318H71.7438V125.818H78.2495V129H67.7949ZM88.0772 119C88.0394 118.527 87.8618 118.157 87.5446 117.892C87.2321 117.627 86.7562 117.494 86.117 117.494C85.7098 117.494 85.376 117.544 85.1156 117.643C84.8599 117.738 84.6705 117.868 84.5474 118.034C84.4243 118.2 84.3604 118.389 84.3556 118.602C84.3462 118.777 84.377 118.936 84.448 119.078C84.5237 119.215 84.6421 119.341 84.8031 119.455C84.9641 119.563 85.17 119.663 85.421 119.753C85.6719 119.843 85.9702 119.923 86.3159 119.994L87.5091 120.25C88.314 120.42 89.0029 120.645 89.5758 120.925C90.1487 121.204 90.6175 121.533 90.9821 121.912C91.3467 122.286 91.6142 122.707 91.7846 123.176C91.9598 123.645 92.0498 124.156 92.0545 124.71C92.0498 125.667 91.8107 126.476 91.3372 127.139C90.8637 127.802 90.1866 128.306 89.3059 128.652C88.43 128.998 87.3765 129.17 86.1454 129.17C84.8812 129.17 83.778 128.983 82.8358 128.609C81.8983 128.235 81.1691 127.66 80.6483 126.884C80.1322 126.102 79.8717 125.103 79.867 123.886H83.617C83.6407 124.331 83.752 124.705 83.9508 125.009C84.1497 125.312 84.429 125.541 84.7889 125.697C85.1535 125.854 85.5867 125.932 86.0886 125.932C86.51 125.932 86.8627 125.88 87.1468 125.776C87.4309 125.671 87.6464 125.527 87.7931 125.342C87.9399 125.158 88.0157 124.947 88.0204 124.71C88.0157 124.488 87.9423 124.294 87.8002 124.128C87.6629 123.957 87.4357 123.806 87.1184 123.673C86.8012 123.536 86.3727 123.408 85.8329 123.29L84.3841 122.977C83.0962 122.698 82.0806 122.232 81.3372 121.578C80.5985 120.92 80.2316 120.023 80.2363 118.886C80.2316 117.963 80.4778 117.156 80.975 116.464C81.4769 115.768 82.1705 115.226 83.0559 114.838C83.9461 114.45 84.9664 114.256 86.117 114.256C87.2913 114.256 88.3069 114.452 89.1639 114.845C90.0209 115.238 90.6814 115.792 91.1454 116.507C91.6142 117.217 91.8509 118.048 91.8556 119H88.0772ZM111.121 119.909H107.115C107.086 119.578 107.011 119.277 106.888 119.007C106.769 118.737 106.604 118.505 106.39 118.311C106.182 118.112 105.929 117.961 105.631 117.857C105.332 117.748 104.994 117.693 104.615 117.693C103.952 117.693 103.391 117.854 102.932 118.176C102.477 118.498 102.131 118.96 101.895 119.561C101.663 120.162 101.547 120.884 101.547 121.727C101.547 122.617 101.665 123.363 101.902 123.964C102.143 124.561 102.491 125.011 102.946 125.314C103.4 125.612 103.947 125.761 104.586 125.761C104.951 125.761 105.278 125.716 105.567 125.626C105.855 125.532 106.106 125.397 106.319 125.222C106.532 125.046 106.705 124.836 106.838 124.589C106.975 124.339 107.068 124.057 107.115 123.744L111.121 123.773C111.073 124.388 110.9 125.016 110.602 125.655C110.304 126.289 109.88 126.876 109.331 127.416C108.786 127.951 108.112 128.382 107.307 128.709C106.502 129.036 105.567 129.199 104.501 129.199C103.166 129.199 101.968 128.912 100.907 128.339C99.8516 127.767 99.0159 126.924 98.4004 125.811C97.7896 124.698 97.4842 123.337 97.4842 121.727C97.4842 120.108 97.7967 118.744 98.4217 117.636C99.0467 116.524 99.8895 115.683 100.95 115.115C102.011 114.542 103.194 114.256 104.501 114.256C105.42 114.256 106.265 114.381 107.037 114.632C107.809 114.883 108.486 115.25 109.068 115.733C109.65 116.211 110.119 116.801 110.474 117.501C110.829 118.202 111.045 119.005 111.121 119.909ZM116.241 129H111.98L116.781 114.455H122.179L126.98 129H122.719L119.537 118.46H119.423L116.241 129ZM115.446 123.261H123.457V126.216H115.446V123.261ZM128.381 129V114.455H134.659C135.739 114.455 136.683 114.668 137.493 115.094C138.303 115.52 138.932 116.119 139.382 116.891C139.832 117.662 140.057 118.564 140.057 119.597C140.057 120.638 139.825 121.54 139.361 122.303C138.902 123.065 138.255 123.652 137.422 124.064C136.593 124.476 135.625 124.682 134.517 124.682H130.767V121.614H133.722C134.186 121.614 134.581 121.533 134.908 121.372C135.239 121.206 135.493 120.972 135.668 120.669C135.848 120.366 135.938 120.009 135.938 119.597C135.938 119.18 135.848 118.825 135.668 118.531C135.493 118.233 135.239 118.006 134.908 117.849C134.581 117.688 134.186 117.608 133.722 117.608H132.33V129H128.381ZM145.455 114.455V129H141.506V114.455H145.455ZM146.928 117.636V114.455H159.57V117.636H155.195V129H151.303V117.636H146.928ZM162.999 129H158.738L163.539 114.455H168.937L173.738 129H169.476L166.295 118.46H166.181L162.999 129ZM162.204 123.261H170.215V126.216H162.204V123.261ZM175.139 129V114.455H179.088V125.818H184.968V129H175.139Z" fill="#044973"/>
</g>
<defs>
<linearGradient id="paint0_linear_2212_194" x1="82.8699" y1="35.6876" x2="96.8571" y2="107.886" gradientUnits="userSpaceOnUse">
<stop stop-color="#2A3A5D"/>
<stop offset="1" stop-color="#00A551"/>
</linearGradient>
<linearGradient id="paint1_linear_2212_194" x1="97.1474" y1="36.806" x2="110.113" y2="49.7952" gradientUnits="userSpaceOnUse">
<stop stop-color="#044973"/>
<stop offset="0.81" stop-color="#00A551"/>
</linearGradient>
<linearGradient id="paint2_linear_2212_194" x1="74.4464" y1="43.6992" x2="93.8756" y2="66.8144" gradientUnits="userSpaceOnUse">
<stop stop-color="#044973"/>
<stop offset="0.81" stop-color="#00A551"/>
</linearGradient>
<linearGradient id="paint3_linear_2212_194" x1="117.341" y1="12.1479" x2="136.416" y2="33.3786" gradientUnits="userSpaceOnUse">
<stop offset="0.08" stop-color="#2A3A5D"/>
<stop offset="1" stop-color="#00A551"/>
</linearGradient>
<clipPath id="clip0_2212_194">
<rect width="186" height="131" fill="white"/>
</clipPath>
</defs>
</svg>
