<svg width="227" height="40" viewBox="0 0 227 40" fill="none" xmlns="http://www.w3.org/2000/svg">
<g clip-path="url(#clip0_2212_201)">
<path d="M8.88319 21.9146C8.88319 23.053 8.90683 24.0171 8.86699 24.9778C8.85663 25.2264 8.68206 25.4979 8.52141 25.7038C7.50118 27.0101 3.8575 31.5447 3.48115 33.2534C3.13265 34.8358 3.68714 35.9822 5.11773 36.5284C6.3161 36.9875 7.55106 36.9163 8.7776 36.7422C11.4911 36.3579 14.0543 35.386 16.545 34.2374C18.5323 33.3193 20.5109 32.327 22.3567 31.1269C24.8532 29.5042 27.1719 27.5856 28.9474 25.045C29.4167 24.3728 29.787 23.6351 30.0466 22.855C30.446 21.6417 30.1114 20.9492 29.0102 20.4285C28.6008 20.236 28.1545 20.1127 27.7147 20.0232C27.2749 19.9337 26.8172 19.9265 26.3278 19.8793V18.5805C28.0201 18.3634 29.6823 18.289 31.087 19.4022C32.2973 20.3613 32.7624 21.7565 32.4395 23.3836C32.1451 24.8673 31.4183 26.1094 30.524 27.2528C28.8722 29.3632 26.9004 31.082 24.7418 32.553C19.6983 35.9894 14.2677 38.4204 8.38182 39.6212C6.69763 39.9645 5.0047 40.0511 3.29168 39.7353C0.546453 39.2297 -0.477016 36.4494 0.182409 34.1282C1.00442 31.2499 2.721 29.0402 4.53669 26.8783C5.01506 26.3091 8.23542 22.5976 8.88319 21.9146Z" fill="url(#paint0_linear_2212_201)"/>
<path d="M17.7436 33.2644V-0.0689249C19.8495 -0.0689249 21.8496 -0.0689249 23.8509 -0.0689249C24.3954 -0.0689249 24.3091 0.367527 24.3141 0.706773C24.3392 2.43249 24.3601 4.15821 24.3632 5.88425C24.3754 13.1779 24.3745 20.4715 24.4015 27.7652C24.4037 28.3536 24.2616 28.7667 23.7997 29.0966C22.1056 30.3061 20.4259 31.539 18.7312 32.7482C18.4553 32.944 18.1318 33.0642 17.7436 33.2644Z" fill="url(#paint1_linear_2212_201)"/>
<path d="M16.2426 4.37581C16.2426 4.76422 16.2426 5.03837 16.2426 5.31155C16.2544 14.379 16.2616 23.4464 16.264 32.5138C16.264 32.7877 16.1114 33.2182 15.9169 33.3114C13.8995 34.2824 11.8589 35.1968 9.6071 36.2274C9.6071 34.9003 9.60465 33.8367 9.6071 32.7728C9.63314 23.7377 9.66102 14.7029 9.69073 5.66824C9.69531 4.41465 9.41601 4.37645 10.9346 4.37581C12.6645 4.37516 14.3934 4.37581 16.2426 4.37581Z" fill="url(#paint2_linear_2212_201)"/>
<path d="M36.238 5.857V10.7191C35.705 10.4849 35.1635 10.2872 34.6578 10.0116C34.2047 9.76439 33.8439 9.82226 33.4107 10.0962C31.1785 11.5099 28.9284 12.8887 26.6823 14.2776C26.4395 14.4278 26.1911 14.5666 25.8863 14.7459C25.8863 13.2931 25.8648 11.9551 25.9096 10.6194C25.9163 10.4187 26.2055 10.1788 26.4115 10.0437C27.3599 9.42253 28.3261 8.83379 29.283 8.22833C29.4761 8.10624 29.6576 7.96073 29.8663 7.81053C29.5535 7.38771 28.7368 7.45428 29.0773 6.56516L36.238 5.857Z" fill="url(#paint3_linear_2212_201)"/>
<path d="M42.339 27V24.1591L47.7651 19.6705C48.1249 19.3722 48.4327 19.0928 48.6884 18.8324C48.9488 18.5672 49.1477 18.295 49.285 18.0156C49.427 17.7363 49.498 17.4261 49.498 17.0852C49.498 16.7112 49.4176 16.3916 49.2566 16.1264C49.1003 15.8613 48.8825 15.6577 48.6032 15.5156C48.3238 15.3688 48.0018 15.2955 47.6373 15.2955C47.2727 15.2955 46.9507 15.3688 46.6713 15.5156C46.3967 15.6624 46.1837 15.8778 46.0321 16.1619C45.8806 16.446 45.8049 16.7917 45.8049 17.1989H42.0549C42.0549 16.1761 42.2845 15.2955 42.7438 14.5568C43.2031 13.8182 43.8517 13.25 44.6898 12.8523C45.5279 12.4545 46.5104 12.2557 47.6373 12.2557C48.802 12.2557 49.8105 12.4427 50.6628 12.8168C51.5198 13.1861 52.1803 13.7069 52.6444 14.3793C53.1131 15.0516 53.3475 15.84 53.3475 16.7443C53.3475 17.303 53.2315 17.8594 52.9995 18.4134C52.7675 18.9626 52.3508 19.571 51.7495 20.2386C51.1481 20.9062 50.2935 21.7017 49.1855 22.625L47.8219 23.7614V23.8466H53.5037V27H42.339ZM61.3482 27.1989C60.5007 27.1989 59.6957 27.0663 58.9334 26.8011C58.1758 26.5312 57.5035 26.1075 56.9164 25.5298C56.3292 24.9522 55.8676 24.1993 55.5314 23.2713C55.2 22.3433 55.0366 21.2187 55.0414 19.8977C55.0461 18.7187 55.1976 17.6581 55.4959 16.7159C55.7989 15.7737 56.2275 14.9711 56.7814 14.3082C57.3401 13.6454 58.0078 13.1387 58.7843 12.7884C59.5608 12.4332 60.4249 12.2557 61.3766 12.2557C62.4467 12.2557 63.3889 12.4616 64.2033 12.8736C65.0177 13.2855 65.6664 13.8371 66.1493 14.5284C66.637 15.215 66.9211 15.9725 67.0016 16.8011H63.1096C63.0196 16.3892 62.8113 16.0885 62.4846 15.8991C62.1626 15.705 61.7933 15.608 61.3766 15.608C60.548 15.608 59.9396 15.9678 59.5513 16.6875C59.1678 17.4072 58.9713 18.3542 58.9618 19.5284H59.0471C59.2317 19.0833 59.5111 18.7022 59.8851 18.3849C60.2592 18.0677 60.6948 17.8239 61.1919 17.6534C61.6891 17.483 62.2147 17.3977 62.7686 17.3977C63.6493 17.3977 64.4187 17.5966 65.0769 17.9943C65.7398 18.392 66.2559 18.9366 66.6252 19.6278C66.9945 20.3191 67.1768 21.1098 67.1721 22C67.1768 23.0417 66.9306 23.9531 66.4334 24.7344C65.941 25.5156 65.2568 26.1217 64.3809 26.5526C63.5049 26.9834 62.494 27.1989 61.3482 27.1989ZM61.3198 24.2159C61.7128 24.2159 62.0608 24.1259 62.3638 23.946C62.6716 23.7661 62.9107 23.5199 63.0811 23.2074C63.2563 22.8949 63.3416 22.5398 63.3368 22.142C63.3416 21.7396 63.2563 21.3845 63.0811 21.0767C62.9107 20.7642 62.6716 20.518 62.3638 20.3381C62.0608 20.1581 61.7128 20.0682 61.3198 20.0682C61.031 20.0682 60.7634 20.1203 60.5172 20.2244C60.2757 20.3239 60.065 20.4683 59.8851 20.6577C59.7052 20.8423 59.5632 21.0625 59.459 21.3182C59.3596 21.5691 59.3075 21.8437 59.3027 22.142C59.3075 22.5398 59.3974 22.8949 59.5726 23.2074C59.7478 23.5199 59.9869 23.7661 60.29 23.946C60.593 24.1259 60.9363 24.2159 61.3198 24.2159ZM72.916 12.4545H77.8308L81.2115 20.6932H81.3819L84.7626 12.4545H89.6774V27H85.8137V18.5909H85.7001L82.4615 26.8864H80.1319L76.8933 18.5341H76.7797V27H72.916V12.4545ZM95.4977 12.4545V27H91.5488V12.4545H95.4977ZM97.3691 27V12.4545H101.318V23.8182H107.199V27H97.3691ZM108.795 27V12.4545H119.278V15.6364H112.744V18.1364H118.738V21.3182H112.744V23.8182H119.249V27H108.795ZM129.077 17C129.039 16.5265 128.862 16.1572 128.545 15.892C128.232 15.6269 127.756 15.4943 127.117 15.4943C126.71 15.4943 126.376 15.544 126.116 15.6435C125.86 15.7382 125.671 15.8684 125.547 16.0341C125.424 16.1998 125.36 16.3892 125.356 16.6023C125.346 16.7775 125.377 16.9361 125.448 17.0781C125.524 17.2154 125.642 17.3409 125.803 17.4545C125.964 17.5634 126.17 17.6629 126.421 17.7528C126.672 17.8428 126.97 17.9233 127.316 17.9943L128.509 18.25C129.314 18.4205 130.003 18.6454 130.576 18.9247C131.149 19.2041 131.617 19.5331 131.982 19.9119C132.347 20.286 132.614 20.7074 132.785 21.1761C132.96 21.6449 133.05 22.1562 133.055 22.7102C133.05 23.6667 132.811 24.4763 132.337 25.1392C131.864 25.8021 131.187 26.3063 130.306 26.652C129.43 26.9976 128.376 27.1705 127.145 27.1705C125.881 27.1705 124.778 26.9834 123.836 26.6094C122.898 26.2353 122.169 25.66 121.648 24.8835C121.132 24.1023 120.872 23.1032 120.867 21.8864H124.617C124.641 22.3314 124.752 22.7055 124.951 23.0085C125.15 23.3116 125.429 23.5412 125.789 23.6974C126.153 23.8537 126.587 23.9318 127.089 23.9318C127.51 23.9318 127.863 23.8797 128.147 23.7756C128.431 23.6714 128.646 23.527 128.793 23.3423C128.94 23.1577 129.016 22.947 129.02 22.7102C129.016 22.4877 128.942 22.2936 128.8 22.1278C128.663 21.9574 128.436 21.8059 128.118 21.6733C127.801 21.536 127.373 21.4081 126.833 21.2898L125.384 20.9773C124.096 20.6979 123.081 20.2315 122.337 19.5781C121.599 18.92 121.232 18.0227 121.236 16.8864C121.232 15.9631 121.478 15.1558 121.975 14.4645C122.477 13.7685 123.171 13.2263 124.056 12.8381C124.946 12.4498 125.966 12.2557 127.117 12.2557C128.291 12.2557 129.307 12.4522 130.164 12.8452C131.021 13.2382 131.681 13.7921 132.145 14.5071C132.614 15.2173 132.851 16.0483 132.856 17H129.077ZM152.121 17.9091H148.115C148.086 17.5777 148.011 17.277 147.888 17.0071C147.769 16.7372 147.604 16.5052 147.39 16.3111C147.182 16.1122 146.929 15.9607 146.631 15.8565C146.332 15.7476 145.994 15.6932 145.615 15.6932C144.952 15.6932 144.391 15.8542 143.932 16.1761C143.477 16.4981 143.131 16.9598 142.895 17.5611C142.663 18.1624 142.547 18.8845 142.547 19.7273C142.547 20.6174 142.665 21.3632 142.902 21.9645C143.143 22.5611 143.491 23.0109 143.946 23.3139C144.4 23.6122 144.947 23.7614 145.586 23.7614C145.951 23.7614 146.278 23.7164 146.567 23.6264C146.855 23.5317 147.106 23.3968 147.319 23.2216C147.532 23.0464 147.705 22.8357 147.838 22.5895C147.975 22.3385 148.068 22.0568 148.115 21.7443L152.121 21.7727C152.073 22.3883 151.9 23.0156 151.602 23.6548C151.304 24.2893 150.88 24.8764 150.331 25.4162C149.786 25.9512 149.112 26.3821 148.307 26.7088C147.502 27.0355 146.567 27.1989 145.501 27.1989C144.166 27.1989 142.968 26.9124 141.907 26.3395C140.852 25.7666 140.016 24.9238 139.4 23.8111C138.79 22.6984 138.484 21.3371 138.484 19.7273C138.484 18.108 138.797 16.7443 139.422 15.6364C140.047 14.5237 140.89 13.6832 141.95 13.1151C143.011 12.5421 144.194 12.2557 145.501 12.2557C146.42 12.2557 147.265 12.3812 148.037 12.6321C148.809 12.883 149.486 13.25 150.068 13.733C150.65 14.2112 151.119 14.8007 151.474 15.5014C151.829 16.2022 152.045 17.0047 152.121 17.9091ZM157.241 27H152.98L157.781 12.4545H163.179L167.98 27H163.719L160.537 16.4602H160.423L157.241 27ZM156.446 21.2614H164.457V24.2159H156.446V21.2614ZM169.381 27V12.4545H175.659C176.739 12.4545 177.683 12.6676 178.493 13.0938C179.303 13.5199 179.932 14.1188 180.382 14.8906C180.832 15.6624 181.057 16.5644 181.057 17.5966C181.057 18.6383 180.825 19.5402 180.361 20.3026C179.902 21.0649 179.255 21.652 178.422 22.0639C177.593 22.4759 176.625 22.6818 175.517 22.6818H171.767V19.6136H174.722C175.186 19.6136 175.581 19.5331 175.908 19.3722C176.239 19.2064 176.493 18.9721 176.668 18.669C176.848 18.366 176.938 18.0085 176.938 17.5966C176.938 17.1799 176.848 16.8248 176.668 16.5312C176.493 16.233 176.239 16.0057 175.908 15.8494C175.581 15.6884 175.186 15.608 174.722 15.608H173.33V27H169.381ZM186.455 12.4545V27H182.506V12.4545H186.455ZM187.928 15.6364V12.4545H200.57V15.6364H196.195V27H192.303V15.6364H187.928ZM203.999 27H199.738L204.539 12.4545H209.937L214.738 27H210.476L207.295 16.4602H207.181L203.999 27ZM203.204 21.2614H211.215V24.2159H203.204V21.2614ZM216.139 27V12.4545H220.088V23.8182H225.968V27H216.139Z" fill="#044973"/>
</g>
<defs>
<linearGradient id="paint0_linear_2212_201" x1="13.2239" y1="13.1517" x2="18.7216" y2="41.1284" gradientUnits="userSpaceOnUse">
<stop stop-color="#2A3A5D"/>
<stop offset="1" stop-color="#00A551"/>
</linearGradient>
<linearGradient id="paint1_linear_2212_201" x1="18.4939" y1="14.0388" x2="23.4564" y2="18.7389" gradientUnits="userSpaceOnUse">
<stop stop-color="#044973"/>
<stop offset="0.81" stop-color="#00A551"/>
</linearGradient>
<linearGradient id="paint2_linear_2212_201" x1="10.0427" y1="16.6722" x2="17.5466" y2="25.0756" gradientUnits="userSpaceOnUse">
<stop stop-color="#044973"/>
<stop offset="0.81" stop-color="#00A551"/>
</linearGradient>
<linearGradient id="paint3_linear_2212_201" x1="26.2771" y1="4.50927" x2="33.8673" y2="12.2481" gradientUnits="userSpaceOnUse">
<stop offset="0.08" stop-color="#2A3A5D"/>
<stop offset="1" stop-color="#00A551"/>
</linearGradient>
<clipPath id="clip0_2212_201">
<rect width="227" height="40" fill="white"/>
</clipPath>
</defs>
</svg>
